<?xml version="1.0" encoding="UTF-8"?>
<svg xmlns="http://www.w3.org/2000/svg" id="Calque_1" data-name="Calque 1" viewBox="0 0 141.73 49.61">
  <defs>
    <style>
      .cls-1 {
        fill: transparent;
      }

      .cls-2 {
        fill: #fff;
      }
    </style>
  </defs>
  <path class="cls-2" fill-rule="evenodd" d="M115.04,39.97c-.2,5.38-4.65,9-10.82,9s-10.64-3.72-10.99-9l4.68.06c.37,2.71,2.94,4.64,6.31,4.64,6.59,0,6.13-5.68,6.13-5.68h0c1.15-.42,3.4-1.36,4.69-2.78,0,0,.11.82,0,3.76Zm-10.91-3.21c-6.62,0-11.25-4.75-11.25-11.3s4.72-11.3,11.21-11.3,11.34,4.65,11.34,11.3-4.68,11.3-11.3,11.3Zm25.43,0c-6.62,0-11.25-4.75-11.25-11.3s4.72-11.3,11.21-11.3,11.34,4.65,11.34,11.3-4.68,11.3-11.3,11.3ZM110.72,25.46c0,3.5-2.06,7.09-6.58,7.09s-6.58-3.67-6.58-7.09,2.26-7.13,6.58-7.13,6.58,3.63,6.58,7.13ZM136.15,25.46c0,3.5-2.06,7.09-6.58,7.09s-6.58-3.67-6.58-7.09,2.26-7.13,6.58-7.13,6.58,3.63,6.58,7.13Z"></path>
  <g>
    <path class="cls-2" d="m37.7,14.16c-6.49,0-11.21,4.75-11.21,11.3s4.63,11.3,11.25,11.3,11.3-4.65,11.3-11.3-4.77-11.3-11.34-11.3Zm.05,18.39c-4.52,0-6.58-3.67-6.58-7.09s2.26-7.13,6.58-7.13,6.58,3.63,6.58,7.13-2.06,7.09-6.58,7.09Z"></path>
    <path class="cls-2" d="m43.83,38.99s.46,5.68-6.13,5.68c-3.37,0-5.94-1.93-6.31-4.64l-4.68-.06c.35,5.28,4.82,9,10.99,9s10.62-3.62,10.82-9c.11-2.94,0-3.76,0-3.76-1.29,1.42-3.54,2.36-4.69,2.77h0Z"></path>
    <path class="cls-2" d="m72.22,25.37c0-3.85,3.04-8.05,8.28-7.37,5.23.68,5.33,5.26,5.33,5.26h-8.15c-.58.54-.9,1.3-.9,2.11,0,.58.17,1.13.48,1.6h12.99c.32-4.23-.58-7.64-2.61-9.87-1.89-2.07-4.78-3.17-8.36-3.17-6.9,0-11.3,4.35-11.53,11.34-.23,6.99,4.78,11.33,9.82,12.16s8.98-.16,14.25-3.3c-.8-1.3-1.4-2.73-1.8-4.25-2.82,1.74-6.75,3.64-11.17,3.15-4.42-.49-6.62-3.81-6.62-7.67h0Z"></path>
    <path class="cls-2" d="m5.35,25.37c0-3.85,3.04-8.05,8.28-7.37,5.23.68,5.33,5.26,5.33,5.26h-8.15c-.58.54-.9,1.3-.9,2.11,0,.58.17,1.13.48,1.6h12.99c.32-4.23-.58-7.64-2.61-9.87-1.89-2.07-4.78-3.17-8.36-3.17-6.9,0-11.3,4.35-11.53,11.34-.23,6.99,4.78,11.33,9.82,12.16,5.04.83,8.98-.16,14.25-3.3-.8-1.3-1.4-2.73-1.8-4.25-2.82,1.74-6.75,3.64-11.17,3.15-4.42-.49-6.62-3.81-6.62-7.67h0Z"></path>
    <path class="cls-2" d="m57.35,18.04l-.54-3.43h-4.32v21.64h4.67v-11.44c0-5.73,4.66-6.17,6.08-6.17,1.12,0,2.02.18,2.85.59.59-1.45,1.39-2.78,2.39-3.96-1.26-.79-2.42-1.16-4.51-1.26s-5,.61-6.62,4.03Z"></path>
  </g>
  <g>
    <path class="cls-2" d="m6.16,6.37h-2.78l-.51,1.42h-.88L4.3,1.45h.96l2.29,6.33h-.88l-.51-1.42h0Zm-.24-.68l-1.15-3.22-1.15,3.22h2.3Z"></path>
    <path class="cls-2" d="m10.76,3.46v2.95c0,.24.05.42.16.52.1.1.28.15.54.15h.61v.7h-.75c-.46,0-.81-.11-1.04-.32s-.35-.56-.35-1.05v-2.95h-.65v-.69h.65v-1.26h.83v1.26h1.31v.69s-1.31,0-1.31,0Z"></path>
    <path class="cls-2" d="m15.28,3.46v2.95c0,.24.05.42.16.52.1.1.28.15.54.15h.61v.7h-.75c-.46,0-.81-.11-1.04-.32s-.35-.56-.35-1.05v-2.95h-.65v-.69h.65v-1.26h.83v1.26h1.31v.69s-1.31,0-1.31,0Z"></path>
    <path class="cls-2" d="m18.8,1.8c-.11-.11-.16-.24-.16-.4s.05-.29.16-.4.24-.16.4-.16.28.05.39.16c.11.11.16.24.16.4s-.05.29-.16.4-.24.16-.39.16-.29-.05-.4-.16Zm.8.98v5.01h-.83V2.77h.83Z"></path>
    <path class="cls-2" d="m23.67,2.92c.27-.16.6-.24.99-.24v.86h-.22c-.93,0-1.4.51-1.4,1.52v2.72h-.83V2.77h.83v.81c.15-.29.35-.51.63-.67h0Z"></path>
    <path class="cls-2" d="m31.35,5.59h-4c.03.49.2.88.51,1.16.31.28.68.42,1.12.42.36,0,.66-.08.9-.25s.41-.39.51-.67h.9c-.13.48-.4.87-.8,1.17s-.9.45-1.5.45c-.48,0-.9-.11-1.27-.32s-.67-.52-.88-.91-.32-.85-.32-1.37.1-.97.31-1.36c.21-.39.5-.69.87-.9s.81-.32,1.29-.32.9.1,1.26.31.65.49.85.85.3.77.3,1.23c0,.16,0,.33-.03.5h-.02Zm-1.04-1.49c-.14-.23-.33-.4-.57-.52s-.51-.18-.8-.18c-.42,0-.78.13-1.07.4-.3.27-.46.64-.51,1.11h3.16c0-.32-.07-.59-.21-.82h0Z"></path>
    <path class="cls-2" d="m35.12,2.92c.27-.16.6-.24.99-.24v.86h-.22c-.93,0-1.4.51-1.4,1.52v2.72h-.83V2.77h.83v.81c.15-.29.35-.51.63-.67h0Z"></path>
    <path class="cls-2" d="m48.34,1.46v6.32h-.83V3.07l-2.1,4.72h-.58l-2.11-4.72v4.72h-.83V1.46h.9l2.34,5.23,2.34-5.23h.89-.02Z"></path>
    <path class="cls-2" d="m50.94,3.91c.21-.39.49-.69.85-.9.36-.21.77-.32,1.21-.32s.82.09,1.14.28.56.43.72.71v-.91h.84v5.01h-.84v-.93c-.16.29-.41.53-.74.73-.33.19-.71.29-1.14.29s-.85-.11-1.21-.33-.64-.53-.85-.92c-.21-.4-.31-.85-.31-1.35s.1-.96.31-1.35h.02Zm3.7.37c-.15-.28-.36-.49-.62-.64-.26-.15-.54-.22-.85-.22s-.59.07-.85.22-.46.36-.61.64c-.15.28-.23.61-.23.99s.08.72.23,1c.15.28.36.5.61.65.26.15.54.22.85.22s.6-.07.85-.22c.26-.15.46-.37.62-.65.15-.28.23-.61.23-.99s-.08-.71-.23-.99h0Z"></path>
    <path class="cls-2" d="m62.22,3.24c.38.37.57.9.57,1.59v2.95h-.82v-2.83c0-.5-.12-.88-.37-1.15s-.59-.4-1.02-.4-.79.14-1.05.41c-.26.27-.39.67-.39,1.2v2.77h-.83V2.77h.83v.71c.16-.26.39-.45.67-.59.28-.14.6-.21.94-.21.61,0,1.1.18,1.48.55h0Z"></path>
    <path class="cls-2" d="m65.34,3.91c.21-.39.49-.69.85-.9.36-.21.77-.32,1.21-.32s.82.09,1.14.28.56.43.72.71v-.91h.84v5.01h-.84v-.93c-.16.29-.41.53-.74.73-.33.19-.71.29-1.14.29s-.85-.11-1.21-.33-.64-.53-.85-.92c-.21-.4-.31-.85-.31-1.35s.1-.96.31-1.35h.02Zm3.7.37c-.15-.28-.36-.49-.62-.64-.26-.15-.54-.22-.85-.22s-.59.07-.85.22-.46.36-.61.64c-.15.28-.23.61-.23.99s.08.72.23,1c.15.28.36.5.61.65.26.15.54.22.85.22s.6-.07.85-.22c.26-.15.46-.37.62-.65.15-.28.23-.61.23-.99s-.08-.71-.23-.99h0Z"></path>
    <path class="cls-2" d="m75.91,2.98c.33.19.57.43.73.71v-.91h.84v5.12c0,.46-.1.86-.29,1.22s-.47.63-.84.84c-.36.2-.78.3-1.27.3-.66,0-1.21-.16-1.64-.47-.44-.31-.7-.73-.78-1.27h.82c.09.3.28.55.57.74s.63.28,1.03.28c.46,0,.83-.14,1.12-.43s.43-.69.43-1.21v-1.05c-.16.29-.41.54-.73.73s-.7.29-1.13.29-.85-.11-1.21-.33-.65-.53-.85-.92c-.21-.4-.31-.85-.31-1.35s.1-.96.31-1.35.49-.69.85-.9.77-.32,1.21-.32.81.09,1.14.28Zm.5,1.31c-.15-.28-.36-.49-.62-.64-.26-.15-.54-.22-.85-.22s-.59.07-.85.22-.46.36-.61.64c-.15.28-.23.61-.23.99s.08.72.23,1c.15.28.36.5.61.65.26.15.54.22.85.22s.6-.07.85-.22c.26-.15.46-.37.62-.65.15-.28.23-.61.23-.99s-.08-.71-.23-.99h0Z"></path>
    <path class="cls-2" d="m84.61,5.59h-4c.03.49.2.88.51,1.16.31.28.68.42,1.12.42.36,0,.66-.08.9-.25s.41-.39.51-.67h.9c-.13.48-.4.87-.8,1.17s-.9.45-1.5.45c-.48,0-.9-.11-1.27-.32-.37-.21-.67-.52-.88-.91s-.32-.85-.32-1.37.1-.97.31-1.36c.21-.39.5-.69.87-.9s.81-.32,1.29-.32.9.1,1.26.31.65.49.85.85.3.77.3,1.23c0,.16,0,.33-.03.5h-.02Zm-1.04-1.49c-.14-.23-.33-.4-.57-.52s-.51-.18-.8-.18c-.42,0-.78.13-1.07.4-.3.27-.46.64-.51,1.11h3.16c0-.32-.07-.59-.21-.82h0Z"></path>
    <path class="cls-2" d="m88.38,2.92c.27-.16.6-.24.99-.24v.86h-.22c-.93,0-1.4.51-1.4,1.52v2.72h-.83V2.77h.83v.81c.15-.29.35-.51.63-.67h0Z"></path>
    <path class="cls-2" d="m98.75,1.41v.68h-2.77v2.15h2.25v.68h-2.25v2.87h-.83V1.41h3.6Z"></path>
    <path class="cls-2" d="m100.97,1.8c-.11-.11-.16-.24-.16-.4s.05-.29.16-.4.24-.16.4-.16.28.05.39.16c.11.11.16.24.16.4s-.05.29-.16.4-.24.16-.39.16-.29-.05-.4-.16Zm.8.98v5.01h-.83V2.77h.83Z"></path>
    <path class="cls-2" d="m104.38,3.91c.21-.39.49-.69.85-.9.36-.21.77-.32,1.22-.32.39,0,.75.09,1.09.27s.59.42.77.71V1.02h.84v6.76h-.84v-.94c-.16.3-.41.54-.73.74-.32.19-.7.29-1.13.29s-.85-.11-1.21-.33-.65-.53-.85-.92c-.21-.4-.31-.85-.31-1.35s.1-.96.31-1.35h0Zm3.7.37c-.15-.28-.36-.49-.62-.64-.26-.15-.54-.22-.85-.22s-.59.07-.85.22-.46.36-.61.64c-.15.28-.23.61-.23.99s.08.72.23,1c.15.28.36.5.61.65.26.15.54.22.85.22s.6-.07.85-.22c.26-.15.46-.37.62-.65.15-.28.23-.61.23-.99s-.08-.71-.23-.99h0Z"></path>
    <path class="cls-2" d="m116.28,5.59h-4c.03.49.2.88.51,1.16.31.28.68.42,1.12.42.36,0,.66-.08.9-.25s.41-.39.51-.67h.9c-.13.48-.4.87-.8,1.17s-.9.45-1.5.45c-.48,0-.9-.11-1.27-.32-.37-.21-.67-.52-.88-.91s-.32-.85-.32-1.37.1-.97.31-1.36c.21-.39.5-.69.87-.9s.81-.32,1.29-.32.9.1,1.26.31.65.49.85.85.3.77.3,1.23c0,.16,0,.33-.03.5h-.02Zm-1.04-1.49c-.14-.23-.33-.4-.57-.52s-.51-.18-.8-.18c-.42,0-.78.13-1.07.4-.3.27-.46.64-.51,1.11h3.16c0-.32-.07-.59-.21-.82h0Zm-.48-2.74l-1.95,1.04v-.62l1.95-1.14v.72Z"></path>
    <path class="cls-2" d="m119.42,1.02v6.76h-.83V1.02h.83Z"></path>
    <path class="cls-2" d="m122.06,1.8c-.11-.11-.16-.24-.16-.4s.05-.29.16-.4.24-.16.4-.16.28.05.39.16c.11.11.16.24.16.4s-.05.29-.16.4-.24.16-.39.16-.29-.05-.4-.16Zm.8.98v5.01h-.83V2.77h.83Z"></path>
    <path class="cls-2" d="m126.2,7.67c-.3-.13-.55-.31-.72-.55-.18-.23-.27-.5-.29-.81h.86c.02.25.14.45.35.61.21.16.49.24.83.24.32,0,.57-.07.75-.21.18-.14.27-.32.27-.53s-.1-.38-.29-.49c-.19-.11-.5-.21-.9-.32-.37-.1-.67-.2-.91-.3s-.44-.25-.6-.45c-.17-.2-.25-.46-.25-.78,0-.26.08-.49.23-.7s.37-.38.65-.51.6-.19.96-.19c.55,0,1,.14,1.34.42s.52.66.55,1.15h-.83c-.02-.26-.12-.47-.32-.63-.19-.16-.45-.24-.77-.24-.3,0-.54.06-.71.19-.18.13-.27.3-.27.5,0,.16.05.3.16.41s.24.19.4.26c.16.06.39.14.67.21.36.1.65.19.88.29.23.09.42.24.58.42.16.19.24.44.25.74,0,.27-.08.52-.23.74s-.37.39-.64.52c-.28.12-.6.19-.95.19-.38,0-.73-.07-1.03-.2l-.02.02Z"></path>
    <path class="cls-2" d="m135.96,5.59h-4c.03.49.2.88.51,1.16.31.28.68.42,1.12.42.36,0,.66-.08.9-.25.24-.17.41-.39.51-.67h.9c-.13.48-.4.87-.8,1.17-.4.3-.9.45-1.5.45-.48,0-.9-.11-1.27-.32-.37-.21-.67-.52-.88-.91s-.32-.85-.32-1.37.1-.97.31-1.36c.21-.39.5-.69.87-.9s.81-.32,1.29-.32.9.1,1.26.31.65.49.85.85c.2.36.3.77.3,1.23,0,.16,0,.33-.03.5h-.02Zm-1.04-1.49c-.14-.23-.33-.4-.57-.52s-.51-.18-.8-.18c-.42,0-.78.13-1.07.4-.3.27-.46.64-.51,1.11h3.16c0-.32-.07-.59-.21-.82h0Z"></path>
    <path class="cls-2" d="m139.73,2.92c.27-.16.6-.24.99-.24v.86h-.22c-.93,0-1.4.51-1.4,1.52v2.72h-.83V2.77h.83v.81c.15-.29.35-.51.63-.67h0Z"></path>
  </g>
</svg>
